# xmcd CD database file
#
# Track frame offsets:
#	150
#	15527
#	27379
#	45011
#	63294
#	74929
#	93644
#	107308
#	125376
#	137463
#	157972
#	170529
#	187902
#	207613
#
# Disc length: 2920 seconds
#
# Revision: 0
# Processed by: cddbd v1.5PL3 Copyright (c) Steve Scherf et al.
# Submitted via: CDex 1.51
#
DISCID=b70b660e
DTITLE=The Taters - The Taters
DYEAR=1993
DGENRE=Country
TTITLE0=Kawliga
TTITLE1=Don't Shoot At Me
TTITLE2=Checkout Time At Eleven
TTITLE3=Folsom Prison Blues
TTITLE4=Miss Molly
TTITLE5=Did You Just Say Goodbye
TTITLE6=South Of The Border
TTITLE7=The Metro Cowboy
TTITLE8=A Long Dusty Road
TTITLE9=(Ghost) Riders In The Sky
TTITLE10=Goodbye To The City
TTITLE11=Gotta Have That Harley
TTITLE12=Mending Fences
TTITLE13=The Final Harvest
EXTD=YEAR: 1993
EXTT0=
EXTT1=
EXTT2=
EXTT3=
EXTT4=
EXTT5=
EXTT6=
EXTT7=
EXTT8=
EXTT9=
EXTT10=
EXTT11=
EXTT12=
EXTT13=
PLAYORDER=
